<?xml version="1.0" encoding="utf-8"?>
<!DOCTYPE svg PUBLIC "-//W3C//DTD SVG 1.1//EN" "http://www.w3.org/Graphics/SVG/1.1/DTD/svg11.dtd">
<svg version="1.1" id="tw-compass-logo" xmlns="http://www.w3.org/2000/svg" xmlns:xlink="http://www.w3.org/1999/xlink" x="0px" y="0px"
	 width="2000px" height="2000px" viewBox="0 0 2000 2000" enable-background="new 0 0 2000 2000" xml:space="preserve">
<g>
	<defs>
		<rect id="SVGID_1_" width="2000" height="2000"/>
	</defs>
	<clipPath id="SVGID_2_">
		<use xlink:href="#SVGID_1_"  overflow="visible"/>
	</clipPath>
	<path clip-path="url(#SVGID_2_)" fill="#E6E6E6" d="M1761.188,1000c0,420.392-340.795,761.188-761.188,761.188
		c-420.392,0-761.188-340.796-761.188-761.188c0-420.392,340.795-761.188,761.188-761.188
		C1420.393,238.812,1761.188,579.608,1761.188,1000"/>
	<path clip-path="url(#SVGID_2_)" fill="#333333" d="M1000,270.5c98.511,0,194.04,19.279,283.934,57.301
		c43.213,18.277,84.896,40.902,123.891,67.247c38.643,26.106,74.982,56.09,108.01,89.118c33.028,33.027,63.012,69.367,89.118,108.01
		c26.345,38.995,48.971,80.678,67.247,123.89C1710.221,805.96,1729.5,901.489,1729.5,1000s-19.279,194.04-57.301,283.934
		c-18.276,43.213-40.902,84.896-67.247,123.891c-26.106,38.643-56.09,74.982-89.118,108.01
		c-33.027,33.028-69.367,63.012-108.01,89.118c-38.995,26.345-80.678,48.97-123.891,67.247
		c-89.894,38.021-185.423,57.301-283.934,57.301c-98.511,0-194.04-19.279-283.934-57.301
		c-43.212-18.277-84.895-40.902-123.89-67.247c-38.643-26.106-74.983-56.09-108.01-89.118
		c-33.028-33.027-63.012-69.367-89.118-108.01c-26.345-38.995-48.971-80.678-67.247-123.891
		C289.779,1194.04,270.5,1098.511,270.5,1000s19.279-194.04,57.301-283.934c18.276-43.212,40.902-84.895,67.247-123.89
		c26.106-38.643,56.09-74.983,89.118-108.01c33.027-33.028,69.367-63.012,108.01-89.118c38.995-26.345,80.678-48.97,123.89-67.247
		C805.96,289.779,901.489,270.5,1000,270.5 M1000,204.5c-439.343,0-795.5,356.157-795.5,795.5s356.157,795.5,795.5,795.5
		s795.5-356.157,795.5-795.5S1439.343,204.5,1000,204.5"/>
	<path clip-path="url(#SVGID_2_)" fill="#333333" d="M1074.086,503.138h-55.139l-56.841-109.639h-0.958
		c1.346,17.244,2.022,30.409,2.022,39.492v70.147h-37.256V347.515h54.926l56.629,108.148h0.639
		c-0.994-15.682-1.49-28.277-1.49-37.788v-70.36h37.469V503.138z"/>
	<path clip-path="url(#SVGID_2_)" fill="#333333" d="M1055.671,1613.458c0,9.651-2.448,18.22-7.345,25.706
		c-4.896,7.488-11.959,13.307-21.183,17.457c-9.226,4.152-20.048,6.228-32.466,6.228c-10.361,0-19.054-0.729-26.079-2.183
		c-7.026-1.453-14.335-3.991-21.928-7.61v-37.469c8.019,4.116,16.356,7.328,25.015,9.634c8.657,2.307,16.605,3.459,23.843,3.459
		c6.245,0,10.821-1.081,13.732-3.246c2.909-2.164,4.364-4.95,4.364-8.356c0-2.129-0.586-3.991-1.756-5.589
		c-1.172-1.596-3.053-3.209-5.643-4.842c-2.591-1.633-9.492-4.967-20.703-10.007c-10.149-4.612-17.76-9.083-22.832-13.411
		c-5.075-4.328-8.836-9.297-11.284-14.903c-2.449-5.604-3.673-12.241-3.673-19.905c0-14.334,5.216-25.51,15.648-33.53
		c10.432-8.019,24.766-12.028,43.004-12.028c16.108,0,32.535,3.726,49.284,11.177l-12.88,32.466
		c-14.548-6.67-27.108-10.006-37.682-10.006c-5.464,0-9.438,0.958-11.921,2.874c-2.485,1.916-3.726,4.294-3.726,7.132
		c0,3.052,1.579,5.785,4.737,8.196c3.157,2.413,11.725,6.812,25.707,13.199c13.411,6.032,22.726,12.507,27.942,19.427
		C1053.062,1594.244,1055.671,1602.957,1055.671,1613.458"/>
	<polygon clip-path="url(#SVGID_2_)" fill="#333333" points="1628.182,1081.929 1535.787,1081.929 1535.787,926.306 
		1628.182,926.306 1628.182,960.049 1577.833,960.049 1577.833,984.532 1624.455,984.532 1624.455,1018.274 1577.833,1018.274 
		1577.833,1047.653 1628.182,1047.653 	"/>
	<path clip-path="url(#SVGID_2_)" fill="#333333" d="M492.847,1081.929h-49.71l-14.902-67.806c-0.71-2.838-1.828-8.479-3.354-16.924
		c-1.526-8.445-2.644-15.505-3.352-21.183c-0.57,4.614-1.491,10.343-2.768,17.191c-1.277,6.849-2.538,13.146-3.778,18.894
		c-1.242,5.748-6.406,29.024-15.489,69.828h-49.709L311.25,926.306h40.556l16.925,78.024c3.832,17.245,6.456,30.976,7.877,41.194
		c0.921-7.238,2.571-17.066,4.95-29.485c2.377-12.418,4.594-22.708,6.652-30.869l13.732-58.864h38.959l13.305,58.864
		c2.271,9.439,4.577,20.331,6.919,32.679c2.342,12.348,3.902,21.573,4.684,27.676c0.921-7.877,3.441-21.537,7.558-40.981
		l17.244-78.237h40.555L492.847,1081.929z"/>
	<polygon clip-path="url(#SVGID_2_)" fill="#FF6666" points="1281.854,519.748 1097.653,1056.857 902.346,943.142 	"/>
	<polygon clip-path="url(#SVGID_2_)" fill="#336699" points="718.145,1480.252 902.346,943.143 1097.654,1056.857 	"/>
	<path clip-path="url(#SVGID_2_)" fill="#333333" d="M665.604,679.934c-3.668,0-7.334-1.399-10.133-4.197L542.327,562.592
		c-5.596-5.596-5.596-14.669,0-20.265c5.596-5.597,14.669-5.596,20.265,0l113.145,113.145c5.596,5.596,5.596,14.669,0,20.265
		C672.938,678.535,669.271,679.934,665.604,679.934"/>
	<path clip-path="url(#SVGID_2_)" fill="#333333" d="M1447.541,1461.87c-3.667,0-7.334-1.397-10.133-4.196l-113.145-113.145
		c-5.596-5.598-5.596-14.669,0-20.266c5.598-5.596,14.668-5.596,20.266,0l113.145,113.145c5.596,5.597,5.596,14.669,0,20.266
		C1454.875,1460.473,1451.208,1461.87,1447.541,1461.87"/>
	<path clip-path="url(#SVGID_2_)" fill="#333333" d="M552.459,1461.87c-3.667,0-7.334-1.397-10.133-4.196
		c-5.596-5.597-5.596-14.669,0-20.266l113.145-113.145c5.597-5.596,14.668-5.596,20.265,0c5.596,5.597,5.596,14.668,0,20.266
		l-113.144,113.145C559.793,1460.473,556.126,1461.87,552.459,1461.87"/>
	<path clip-path="url(#SVGID_2_)" fill="#333333" d="M1334.396,679.934c-3.667,0-7.334-1.399-10.133-4.197
		c-5.596-5.596-5.596-14.669,0-20.265l113.145-113.145c5.598-5.596,14.668-5.596,20.266,0c5.596,5.596,5.596,14.669,0,20.265
		l-113.145,113.145C1341.73,678.535,1338.063,679.934,1334.396,679.934"/>
</g>
</svg>
